<svg version="1.1" id="Layer_1" xmlns="http://www.w3.org/2000/svg" xmlns:xlink="http://www.w3.org/1999/xlink" x="0px" y="0px"
	 width="100%" viewBox="0 0 1024 768" enable-background="new 0 0 1024 768" xml:space="preserve">
<path fill="#ed00be" opacity="1.000000" stroke="none" 
	d="
M178.480011,396.445435 
	C176.050491,399.839020 174.003815,403.078430 171.700424,406.123688 
	C161.178223,420.034851 146.915497,425.800964 130.013931,422.961304 
	C113.505180,420.187622 102.029625,410.285309 96.595467,394.178589 
	C88.013443,368.741638 103.813065,339.971741 134.132584,336.959961 
	C148.079865,335.574524 159.811447,341.419586 169.136002,351.825165 
	C172.131897,355.168335 174.746506,358.850433 177.678680,362.254181 
	C181.744934,366.974457 186.883484,369.645477 193.142883,368.130066 
	C199.863739,366.502899 205.031052,362.644257 206.231873,355.309296 
	C207.147278,349.717743 204.247803,344.984344 201.844849,340.273376 
	C195.699875,328.226318 195.357788,316.100891 200.729507,303.694244 
	C208.213104,286.409943 227.000137,276.054352 245.992676,278.893311 
	C265.173920,281.760498 279.838440,296.894287 282.437012,315.438293 
	C285.931458,340.375763 267.665131,364.833099 239.360641,364.385132 
	C229.867920,364.234894 223.514435,369.390778 222.143616,377.702820 
	C220.822174,385.715454 224.648239,392.872528 232.113693,395.040466 
	C236.042084,396.181305 240.322113,396.115570 244.444733,396.582611 
	C266.635773,399.096771 282.835480,416.081360 283.022980,438.424225 
	C283.220276,461.941620 266.453461,479.677673 245.068222,482.149902 
	C222.059280,484.809845 201.642227,469.263245 197.585098,447.160675 
	C195.588715,436.284698 198.062637,426.392487 202.824646,416.766205 
	C205.662933,411.028687 205.951553,405.173248 202.472488,399.617401 
	C197.054474,390.965271 185.527115,389.498322 178.480011,396.445435 
z"/>
<path fill="#ed00be" opacity="1.000000" stroke="none" 
	d="
M655.334839,468.000061 
	C655.335205,480.611084 655.335205,492.722107 655.335205,505.336121 
	C644.726929,505.336121 634.777649,505.347961 624.828369,505.325439 
	C622.992126,505.321259 622.148682,504.169250 622.021301,502.460785 
	C621.922363,501.133820 621.904663,499.798431 621.904480,498.466797 
	C621.897217,443.642303 621.893005,388.817810 621.898132,333.993317 
	C621.898804,326.890930 621.923096,326.894653 629.210266,326.902893 
	C634.542725,326.908936 639.875244,326.906311 645.207703,326.902679 
	C653.183960,326.897278 653.183960,326.895477 654.710571,334.979614 
	C670.529663,325.028564 687.319885,321.776642 705.280273,327.550201 
	C717.395996,331.444855 727.175842,338.666077 734.698364,348.929779 
	C751.158020,371.387421 751.223999,403.306580 734.939453,425.082092 
	C725.626892,437.534729 713.267822,445.054108 698.126404,448.145935 
	C683.043335,451.225861 669.141418,447.935669 655.334534,439.176117 
	C655.334534,449.313171 655.334534,458.406616 655.334839,468.000061 
M653.938232,373.543427 
	C651.308716,380.577484 650.839661,387.711853 652.453308,395.086761 
	C656.102295,411.763062 673.914185,422.601501 690.439819,418.051422 
	C705.343445,413.947906 714.156677,401.175354 713.684998,384.363556 
	C713.280518,369.948334 703.018616,357.678680 688.543152,354.792358 
	C677.980713,352.686279 660.910461,356.498718 653.938232,373.543427 
z"/>
<path fill="#ed00be" opacity="1.000000" stroke="none" 
	d="
M536.605347,448.810669 
	C527.793152,447.698700 520.227539,444.394531 513.101074,440.003082 
	C511.657288,442.079346 512.193726,443.956268 512.188599,445.702454 
	C512.135864,463.693024 512.032043,481.685120 512.228210,499.673645 
	C512.277588,504.198212 511.007324,505.807892 506.279816,505.549011 
	C498.640045,505.130676 490.956482,505.292297 483.299744,505.506653 
	C479.946808,505.600525 478.590302,504.768738 478.596436,501.127838 
	C478.690704,444.656891 478.683167,388.185669 478.619354,331.714630 
	C478.615601,328.390198 479.591980,326.785309 483.131470,326.841156 
	C490.958832,326.964752 498.797180,327.098907 506.616211,326.816895 
	C512.870850,326.591309 510.477753,331.639648 511.658020,334.766144 
	C540.028870,319.038361 566.252991,320.720337 588.612366,345.130615 
	C605.783936,363.877258 608.411133,393.764008 596.335938,417.214722 
	C585.197998,438.844910 561.871155,451.313843 536.605347,448.810669 
M570.105286,394.439178 
	C572.965393,379.421051 567.590698,365.689026 556.132874,358.740417 
	C544.289978,351.558350 527.446289,353.478577 517.816040,363.108704 
	C508.017456,372.907196 505.853455,391.634674 513.240295,403.940704 
	C520.544617,416.109314 532.012146,420.334351 545.269226,418.424805 
	C558.346130,416.541290 566.325256,407.915955 570.105286,394.439178 
z"/>
<path fill="#ed00be" opacity="1.000000" stroke="none" 
	d="
M918.439331,346.624573 
	C928.198181,360.057922 931.333557,374.883118 930.402466,390.862488 
	C930.163391,394.965759 927.742615,395.192505 924.656921,395.190094 
	C900.992859,395.171570 877.328857,395.196045 853.664795,395.215393 
	C846.833008,395.220978 846.332703,395.945648 848.683960,402.304932 
	C854.518005,418.083221 872.439148,425.877380 889.651001,420.118866 
	C895.253601,418.244446 900.355408,415.401459 904.736206,411.483887 
	C907.246948,409.238739 909.031006,409.058777 911.410217,411.616364 
	C915.380066,415.883789 919.490479,420.042328 923.793823,423.970459 
	C926.883972,426.791107 926.229004,428.854919 923.425720,431.267517 
	C904.503113,447.553009 882.931885,453.126129 858.756042,446.596436 
	C833.914062,439.886841 818.135864,420.637634 815.605286,394.879669 
	C813.288452,371.297424 819.535767,350.760040 838.600647,335.768738 
	C863.449951,316.229034 898.554871,321.177826 918.439331,346.624573 
M892.681763,370.852356 
	C896.711426,370.597443 895.030884,368.011597 894.397156,366.206940 
	C891.254822,357.258820 882.528564,351.274292 872.816223,351.236115 
	C862.577209,351.195892 852.790161,357.617157 849.652527,366.488770 
	C849.224548,367.699036 848.606506,368.978638 849.857971,370.883698 
	C863.601746,370.883698 877.724792,370.883698 892.681763,370.852356 
z"/>
<path fill="#ed00be" opacity="1.000000" stroke="none" 
	d="
M763.785583,424.999756 
	C763.795288,375.871399 763.801697,327.243011 763.821106,278.614594 
	C763.823853,271.676422 763.852844,271.670380 770.668457,271.662964 
	C777.496460,271.655548 784.337463,271.919464 791.147949,271.574219 
	C795.913391,271.332611 797.454346,272.886017 797.428101,277.745148 
	C797.245239,311.550934 797.333069,345.358154 797.331726,379.164917 
	C797.330872,399.815338 797.190552,420.467316 797.424133,441.115051 
	C797.477661,445.849365 795.783752,447.230560 791.357544,447.085724 
	C784.037476,446.846191 776.702454,446.893311 769.377747,447.031403 
	C765.394104,447.106445 763.582153,445.667297 763.758118,441.484863 
	C763.981812,436.165497 763.795776,430.828888 763.785583,424.999756 
z"/>
<path fill="#ed00be" opacity="1.000000" stroke="none" 
	d="
M359.142578,396.000122 
	C359.148956,411.317657 359.033447,426.136902 359.235046,440.951843 
	C359.296265,445.450500 357.803192,447.291138 353.204865,447.140137 
	C345.887054,446.899841 338.548920,446.874542 331.232819,447.135193 
	C326.779358,447.293854 325.579376,445.527283 325.594910,441.266235 
	C325.726654,405.138306 325.731812,369.009460 325.588104,332.881592 
	C325.570343,328.424713 326.726807,326.547241 331.472076,326.800659 
	C337.946442,327.146423 344.462219,327.079559 350.943756,326.803131 
	C355.452637,326.610779 358.076294,327.714783 357.352783,332.830261 
	C357.220734,333.763855 357.507294,334.756622 357.679779,336.540527 
	C371.179779,326.301239 385.739471,322.550873 402.293884,326.058868 
	C402.580872,335.606964 400.765076,344.756470 399.855560,353.960419 
	C399.570129,356.849182 397.122528,356.051483 395.104675,355.729218 
	C385.885315,354.256866 377.212463,355.443878 369.469360,361.126434 
	C362.735138,366.068512 358.825623,372.386047 359.129852,381.016693 
	C359.299805,385.838684 359.148895,390.671967 359.142578,396.000122 
z"/>
<path fill="#ed00be" opacity="1.000000" stroke="none" 
	d="
M417.898193,367.000000 
	C417.896179,355.168579 418.001617,343.835632 417.836090,332.506622 
	C417.778442,328.560974 418.891296,326.688751 423.200928,326.822205 
	C431.025360,327.064514 438.864014,326.972137 446.694122,326.851135 
	C450.109497,326.798340 451.383148,328.143036 451.375916,331.582245 
	C451.297882,368.575836 451.296356,405.569702 451.361023,442.563324 
	C451.366730,445.821960 450.049164,447.053375 446.926880,447.029938 
	C439.262085,446.972412 431.590454,446.847443 423.933441,447.103943 
	C419.366211,447.256927 417.796356,445.522919 417.823608,440.987000 
	C417.970856,416.492065 417.896881,391.995819 417.898193,367.000000 
z"/>
<path fill="#ed00be" opacity="1.000000" stroke="none" 
	d="
M431.399048,264.739624 
	C446.215881,264.392670 455.492676,271.699097 456.225433,283.912750 
	C456.891937,295.022400 449.292114,304.404877 438.214905,306.147980 
	C426.549988,307.983612 416.107452,301.430298 413.219055,290.461609 
	C410.613831,280.568207 416.738464,269.666229 427.108582,265.811310 
	C428.348328,265.350433 429.670654,265.111694 431.399048,264.739624 
z"/>
</svg>