<svg version="1.1" id="Layer_1" xmlns="http://www.w3.org/2000/svg" xmlns:xlink="http://www.w3.org/1999/xlink" x="0px" y="0px"
	 width="100%" viewBox="0 0 1024 576" enable-background="new 0 0 1024 576" xml:space="preserve">
<path fill="#ed00be" opacity="1.000000" stroke="none" 
	d="
M348.932892,340.955322 
	C320.646088,340.967072 292.847229,340.978943 265.048340,340.985931 
	C263.884064,340.986237 262.700531,341.067841 261.559082,340.894196 
	C257.918518,340.340302 256.780029,338.054382 259.158997,335.397278 
	C265.031830,328.837952 271.143188,322.491058 277.206940,316.104553 
	C279.096130,314.114777 281.689575,314.052429 284.192139,314.051025 
	C313.988525,314.034210 343.784912,314.029724 373.581207,314.085785 
	C375.814117,314.089996 378.723419,313.553955 379.694824,316.248779 
	C380.527802,318.559509 378.272980,320.165070 376.866516,321.699829 
	C373.045685,325.869141 368.725098,329.626984 365.253510,334.057892 
	C361.084167,339.379364 356.219604,342.137238 348.932892,340.955322 
z"/>
<path fill="#ed00be" opacity="1.000000" stroke="none" 
	d="
M314.000061,275.717072 
	C327.482178,275.717926 340.465302,275.809937 353.445709,275.660980 
	C357.028015,275.619873 359.932678,276.507202 362.349274,279.163361 
	C367.606140,284.941406 372.934235,290.654755 378.187195,296.436310 
	C379.162537,297.509796 380.466492,298.626099 379.779114,300.347168 
	C379.023346,302.239441 377.265167,302.303955 375.572205,302.304291 
	C344.282104,302.310669 312.992004,302.297119 281.701935,302.333038 
	C279.482941,302.335602 277.926849,301.335388 276.515961,299.818909 
	C271.078674,293.974640 265.606537,288.162689 260.196838,282.293091 
	C258.970459,280.962433 257.498352,279.481354 258.287964,277.472839 
	C259.138672,275.309021 261.291595,275.727997 263.069580,275.725494 
	C279.879700,275.701965 296.689880,275.714874 314.000061,275.717072 
z"/>
<path fill="#ed00be" opacity="1.000000" stroke="none" 
	d="
M324.999939,264.297180 
	C304.359070,264.299194 284.218109,264.322144 264.077393,264.270050 
	C262.035370,264.264771 259.408051,265.138489 258.299408,262.568146 
	C257.238251,260.108032 259.366608,258.590424 260.792664,257.043823 
	C265.865356,251.542313 271.028046,246.123703 276.093170,240.615295 
	C278.025238,238.514175 280.236359,237.650238 283.137512,237.657486 
	C313.431885,237.733261 343.726501,237.691589 374.021027,237.722839 
	C376.096680,237.724991 378.668701,237.105988 379.669250,239.729294 
	C380.552399,242.044739 378.465027,243.337433 377.164520,244.745010 
	C372.089722,250.237686 366.843689,255.575729 361.877533,261.163452 
	C359.794952,263.506683 357.515869,264.379181 354.462341,264.341370 
	C344.809540,264.221924 335.154266,264.297028 324.999939,264.297180 
z"/>
<path fill="#ed00be" opacity="1.000000" stroke="none" 
	d="
M519.331787,263.806335 
	C525.102844,265.737274 527.062378,269.751160 527.032898,275.113708 
	C526.981628,284.433350 527.104919,293.755402 526.937439,303.072540 
	C526.783875,311.614014 523.023010,315.226654 514.619995,315.255951 
	C505.965820,315.286133 497.311157,315.299286 488.657349,315.235291 
	C481.951477,315.185730 477.859009,311.836334 477.448486,305.109680 
	C476.779785,294.152496 476.620178,283.147339 477.695038,272.199036 
	C478.250916,266.536926 481.659607,263.687988 487.453033,263.652618 
	C497.936279,263.588593 508.420563,263.693420 519.331787,263.806335 
M502.487122,303.887604 
	C505.312897,303.875000 508.141693,303.940338 510.963654,303.830048 
	C514.479248,303.692688 516.600708,301.877045 516.651978,298.259796 
	C516.741333,291.944641 516.789612,285.624451 516.631104,279.311981 
	C516.538147,275.612244 514.414429,273.453369 510.628754,273.392700 
	C504.978485,273.302124 499.325775,273.354431 493.674133,273.365479 
	C490.027496,273.372620 488.112518,275.224274 488.053467,278.869324 
	C487.991547,282.691406 488.021667,286.514893 487.998596,290.337738 
	C487.909149,305.160034 487.561127,303.882477 502.487122,303.887604 
z"/>
<path fill="#ed00be" opacity="1.000000" stroke="none" 
	d="
M728.320679,311.745605 
	C727.499268,316.575806 724.095459,315.158417 721.536377,315.052856 
	C718.874023,314.943054 718.690735,312.695923 718.688660,310.609406 
	C718.676147,298.131653 718.551514,285.652252 718.722046,273.176910 
	C718.805664,267.057159 722.411987,263.687103 728.516052,263.628815 
	C738.164734,263.536713 747.815491,263.550415 757.464417,263.633606 
	C763.892395,263.689026 766.964172,266.270294 767.515991,272.837677 
	C768.575500,285.447601 767.888428,298.102631 767.913452,310.738708 
	C767.920837,314.483002 765.664551,315.339020 762.306274,315.306213 
	C758.789246,315.271851 757.584290,313.664429 757.674194,310.393280 
	C757.770081,306.902405 757.599731,303.404266 757.692505,299.913239 
	C757.766113,297.147064 756.500671,295.978699 753.814575,295.984741 
	C746.661011,296.000824 739.506958,295.999634 732.353882,295.930939 
	C729.300964,295.901642 728.280273,297.444366 728.355225,300.294983 
	C728.451416,303.952301 728.358032,307.614563 728.320679,311.745605 
M734.745605,287.018250 
	C740.709412,287.021698 746.675476,286.925873 752.636047,287.066681 
	C756.085144,287.148193 758.076050,286.130157 757.691284,282.280701 
	C757.318909,278.555054 758.983032,273.556702 752.812317,273.261353 
	C746.532410,272.960785 740.220154,273.023315 733.934326,273.257629 
	C728.608093,273.456207 728.582275,277.537567 728.337769,281.519684 
	C728.085632,285.626251 729.753601,287.414886 734.745605,287.018250 
z"/>
<path fill="#ed00be" opacity="1.000000" stroke="none" 
	d="
M594.819885,306.870697 
	C594.812256,296.075195 594.758789,285.764130 594.812195,275.453583 
	C594.856689,266.855927 598.074707,263.640900 606.504822,263.625061 
	C615.318848,263.608521 624.133423,263.586334 632.947021,263.653687 
	C639.965027,263.707306 643.311707,267.054871 643.338928,274.054382 
	C643.385559,286.028046 643.289612,298.002502 643.383118,309.975616 
	C643.409180,313.312012 642.702087,315.279755 638.743042,315.318146 
	C634.691406,315.357391 633.354248,313.563171 633.660278,309.872864 
	C633.701294,309.377594 633.661438,308.875549 633.657715,308.376648 
	C633.564819,295.919586 633.564819,295.922333 620.823486,295.937836 
	C617.497437,295.941864 614.152161,296.146332 610.849915,295.861603 
	C606.136536,295.455231 604.571838,297.586700 604.926453,302.001465 
	C605.138794,304.645203 604.941406,307.320190 604.970032,309.980713 
	C605.005859,313.305908 603.902710,315.255951 600.073303,315.293518 
	C596.103821,315.332367 594.646973,313.530762 594.817993,309.849701 
	C594.856506,309.019989 594.821472,308.186890 594.819885,306.870697 
M610.723633,287.028168 
	C616.556213,287.033417 622.390503,286.953278 628.220642,287.075348 
	C631.826782,287.150879 634.018799,286.142120 633.682373,281.992584 
	C633.367920,278.112946 634.523621,273.364929 628.378296,273.198822 
	C622.383972,273.036804 616.381653,273.184174 610.382935,273.164581 
	C605.771545,273.149536 604.906250,276.141235 604.998169,279.854828 
	C605.081604,283.226746 604.061951,287.399017 610.723633,287.028168 
z"/>
<path fill="#ed00be" opacity="1.000000" stroke="none" 
	d="
M426.340393,278.357300 
	C426.167206,282.469116 428.386780,283.667694 431.679993,283.676941 
	C437.343903,283.692871 443.010071,283.601807 448.671265,283.731354 
	C458.104553,283.947205 464.393036,290.410492 464.249420,299.572083 
	C464.106354,308.695129 457.586060,315.175507 448.347961,315.241272 
	C439.852509,315.301758 431.356140,315.260742 422.860413,315.218262 
	C421.061676,315.209259 418.975281,315.444550 418.222870,313.200378 
	C417.541534,311.168213 419.488007,310.357452 420.479004,309.117523 
	C423.869019,304.875885 428.191498,303.345123 433.629913,303.807861 
	C438.425598,304.215973 443.284729,303.851501 448.115479,303.883881 
	C451.304779,303.905212 454.136047,302.908051 454.079559,299.387390 
	C454.023285,295.878601 451.120178,294.977081 447.969482,294.985687 
	C442.305817,295.001190 436.632629,295.162964 430.980530,294.898346 
	C423.182983,294.533264 417.046112,288.806000 415.959320,281.300781 
	C414.913635,274.079437 418.867584,267.210785 425.719543,264.560760 
	C427.085358,264.032532 428.613037,263.680176 430.069489,263.668549 
	C439.231049,263.595123 448.393616,263.630524 457.555756,263.657684 
	C459.037445,263.662079 460.752045,263.477417 461.513245,265.127960 
	C462.318390,266.873779 460.702789,267.808319 459.825714,268.942810 
	C456.780243,272.882202 453.056305,274.914551 447.785522,274.450165 
	C442.661865,273.998779 437.465546,274.411163 432.302032,274.357086 
	C429.521484,274.327972 427.426666,275.234100 426.340393,278.357300 
z"/>
<path fill="#ed00be" opacity="1.000000" stroke="none" 
	d="
M681.653320,297.337769 
	C677.069763,291.726929 672.719482,286.384094 668.369202,281.041290 
	C667.992981,281.192596 667.616699,281.343903 667.240479,281.495209 
	C667.240479,290.760101 667.291809,300.025421 667.220032,309.289795 
	C667.180969,314.336731 665.718140,315.541687 660.954956,315.250275 
	C658.069336,315.073761 656.702698,313.739532 656.702454,310.882172 
	C656.701294,296.552643 656.683044,282.223145 656.687195,267.893616 
	C656.687744,265.970673 656.957886,263.947968 659.349731,263.792236 
	C662.570862,263.582520 665.969116,262.721405 668.499329,266.034821 
	C673.749329,272.909729 679.159912,279.662048 684.506775,286.462982 
	C687.545837,290.328430 690.589539,294.190247 693.907471,298.404633 
	C695.857422,295.764618 695.585693,293.406555 695.600403,291.165802 
	C695.649536,283.668060 695.702148,276.168396 695.577942,268.672333 
	C695.519531,265.145630 696.726135,263.546539 700.494751,263.549225 
	C704.184265,263.551819 705.462952,264.932617 705.427917,268.567749 
	C705.297913,282.062958 705.417053,295.560425 705.341736,309.056488 
	C705.329712,311.218445 706.322205,314.297485 703.125488,314.919220 
	C699.973328,315.532318 696.536743,316.197937 693.990601,312.850311 
	C690.063538,307.686951 685.931580,302.679413 681.653320,297.337769 
z"/>
<path fill="#ed00be" opacity="1.000000" stroke="none" 
	d="
M566.009277,305.651062 
	C570.999207,305.658936 575.496643,305.548035 579.983887,305.713501 
	C583.631287,305.848022 584.428162,307.540070 582.240173,310.435791 
	C580.013855,313.382355 577.612305,315.604401 573.213379,315.395538 
	C564.247009,314.969849 555.243774,315.109528 546.262085,315.307922 
	C541.825989,315.405853 539.893005,313.844147 539.946289,309.258759 
	C540.098999,296.114044 539.988831,282.966400 540.017029,269.820007 
	C540.024109,266.504883 540.170654,263.590057 544.948486,263.536224 
	C549.938232,263.480042 550.185242,266.380981 550.172546,269.998749 
	C550.138611,279.650421 550.154785,289.302368 550.176025,298.954132 
	C550.190125,305.353058 550.441040,305.586334 557.025330,305.639801 
	C559.854187,305.662781 562.683350,305.648865 566.009277,305.651062 
z"/>
</svg>