<?xml version="1.0" standalone="no"?>
<!DOCTYPE svg PUBLIC "-//W3C//DTD SVG 20010904//EN"
 "http://www.w3.org/TR/2001/REC-SVG-20010904/DTD/svg10.dtd">
<svg version="1.0" xmlns="http://www.w3.org/2000/svg"
 width="512.000000pt" height="512.000000pt" viewBox="0 0 512.000000 512.000000"
 preserveAspectRatio="xMidYMid meet">

<g transform="translate(0.000000,512.000000) scale(0.100000,-0.100000)"
 stroke="none">
<path d="M2340 4669 c-283 -29 -601 -134 -851 -281 -297 -175 -571 -447 -747
-739 -356 -594 -399 -1320 -115 -1955 251 -561 755 -999 1343 -1169 206 -59
348 -79 580 -79 233 -1 331 10 530 60 l135 34 681 681 682 681 21 77 c177 646
54 1314 -338 1842 -446 601 -1176 923 -1921 848z m418 -79 c705 -77 1302 -484
1620 -1107 216 -424 276 -913 168 -1385 -32 -141 -37 -148 -87 -148 -61 0
-226 -36 -326 -71 -518 -181 -909 -668 -961 -1195 l-7 -69 -50 -16 c-27 -10
-95 -26 -150 -37 -893 -184 -1805 258 -2223 1075 -510 999 -109 2228 895 2741
341 174 751 251 1121 212z m1087 -3310 c-324 -324 -590 -588 -592 -587 -6 7
40 205 63 269 71 199 173 357 329 513 157 157 316 259 515 329 62 22 227 63
265 65 5 1 -255 -264 -580 -589z"/>
<path d="M2360 4349 c-451 -51 -883 -283 -1173 -628 -568 -677 -568 -1645 0
-2322 423 -504 1105 -737 1747 -599 94 21 116 32 116 60 0 40 -22 42 -155 15
-291 -59 -589 -41 -876 55 -641 212 -1094 777 -1168 1452 -60 542 153 1092
565 1460 107 95 232 180 364 248 560 285 1217 246 1740 -106 241 -161 436
-382 570 -644 177 -348 231 -739 155 -1115 -27 -133 -25 -155 15 -155 28 0 39
22 60 116 84 393 34 795 -144 1159 -79 160 -159 281 -268 405 -385 437 -972
664 -1548 599z"/>
<path d="M1252 3548 c-16 -16 -15 -43 2 -57 10 -8 360 -10 1311 -9 1224 3
1298 4 1309 21 8 12 8 22 0 35 -11 16 -86 17 -1311 20 -1002 1 -1302 -1 -1311
-10z"/>
<path d="M1292 3229 c-47 -14 -109 -80 -122 -131 -7 -25 -11 -92 -8 -163 3
-112 5 -125 30 -162 41 -63 90 -88 169 -88 54 0 72 5 106 27 54 35 84 87 86
144 3 83 -60 89 -76 7 -4 -24 -20 -51 -38 -69 -25 -24 -39 -29 -79 -29 -43 0
-54 5 -82 33 l-33 32 0 130 0 130 33 32 c28 28 39 33 82 33 40 0 54 -5 79 -29
18 -18 34 -45 38 -69 16 -82 79 -76 76 7 -4 119 -137 203 -261 165z"/>
<path d="M1772 3229 c-47 -14 -109 -80 -122 -131 -7 -25 -11 -92 -8 -163 3
-112 5 -125 30 -162 41 -63 90 -88 169 -88 54 0 72 5 106 27 22 15 51 44 64
65 22 35 24 48 24 183 0 135 -2 148 -24 183 -47 76 -151 113 -239 86z m152
-108 l31 -31 0 -130 0 -130 -33 -32 c-28 -28 -39 -33 -82 -33 -43 0 -54 5 -82
33 l-33 32 0 129 c0 124 1 130 25 156 33 36 57 46 104 41 27 -3 49 -14 70 -35z"/>
<path d="M2131 3227 c-8 -11 -11 -85 -9 -272 3 -233 5 -259 21 -269 12 -8 22
-8 35 0 15 10 17 32 20 175 l3 164 47 -90 c40 -77 51 -90 72 -90 21 0 32 13
72 90 l47 90 3 -164 c3 -143 5 -165 21 -175 12 -8 22 -8 35 0 15 10 17 36 20
269 2 271 0 289 -42 283 -16 -2 -37 -35 -86 -130 -36 -71 -67 -128 -70 -128
-3 0 -34 57 -70 128 -66 130 -90 153 -119 119z"/>
<path d="M2612 3228 c-15 -15 -15 -41 0 -56 7 -7 40 -12 80 -12 l68 0 0 -200
0 -199 -71 -3 c-55 -2 -74 -7 -83 -21 -8 -12 -8 -22 0 -35 10 -15 31 -17 194
-17 163 0 184 2 194 17 8 13 8 23 0 35 -9 14 -28 19 -83 21 l-71 3 0 199 0
199 71 3 c55 2 74 7 83 21 8 12 8 22 0 35 -10 15 -32 17 -190 20 -131 2 -183
-1 -192 -10z"/>
<path d="M3091 3226 c-8 -9 -11 -89 -9 -271 3 -233 5 -259 21 -269 12 -8 22
-8 35 0 15 10 18 34 22 194 l5 183 128 -192 c128 -192 147 -212 176 -177 8 9
11 89 9 271 -3 233 -5 259 -20 269 -13 8 -23 8 -35 0 -16 -10 -19 -34 -23
-194 l-5 -183 -128 192 c-128 192 -147 212 -176 177z"/>
<path d="M3635 3231 c-11 -5 -31 -21 -45 -36 l-25 -27 0 -209 0 -209 33 -32
32 -33 130 0 130 0 32 33 c32 31 33 36 36 125 3 73 1 96 -11 105 -10 9 -46 12
-112 10 -80 -2 -100 -6 -109 -20 -8 -13 -8 -23 0 -35 9 -14 28 -19 83 -21 l71
-3 0 -47 c0 -27 -5 -53 -12 -60 -16 -16 -200 -16 -216 0 -17 17 -17 359 0 376
17 17 202 16 216 -1 6 -7 12 -30 14 -51 4 -46 28 -67 56 -50 13 9 17 25 17 68
0 50 -4 60 -33 89 l-32 32 -118 2 c-64 2 -126 -1 -137 -6z"/>
<path d="M1470 2584 c-162 -70 -160 -301 2 -369 24 -9 68 -15 123 -15 98 0
136 -14 160 -60 31 -60 10 -137 -45 -165 -19 -10 -57 -15 -112 -15 -120 0
-141 16 -174 125 -17 56 -74 40 -74 -22 0 -66 52 -138 122 -168 50 -20 206
-20 256 0 163 69 163 301 0 370 -24 9 -68 15 -123 15 -98 0 -136 14 -160 60
-31 60 -10 137 45 165 19 10 57 15 112 15 118 0 151 -23 172 -122 7 -31 40
-45 61 -28 33 28 7 127 -47 177 -42 40 -91 53 -190 53 -60 -1 -105 -6 -128
-16z"/>
<path d="M2156 2585 c-59 -21 -108 -65 -138 -125 -27 -52 -28 -58 -28 -217 0
-124 4 -172 15 -200 86 -205 361 -218 459 -21 25 50 26 59 26 219 0 163 -1
168 -28 220 -59 114 -188 166 -306 124z m161 -86 c29 -14 52 -35 68 -63 24
-41 25 -51 25 -196 0 -145 -1 -155 -25 -196 -28 -48 -91 -84 -147 -84 -52 0
-119 40 -145 86 -21 36 -23 52 -23 194 0 142 2 158 23 194 26 46 93 86 145 86
20 0 55 -9 79 -21z"/>
<path d="M2796 2585 c-59 -21 -108 -65 -138 -125 -27 -52 -28 -58 -28 -217 0
-124 4 -172 15 -200 86 -205 361 -218 459 -21 25 50 26 59 26 219 0 163 -1
168 -28 220 -59 114 -188 166 -306 124z m161 -86 c29 -14 52 -35 68 -63 24
-41 25 -51 25 -196 0 -145 -1 -155 -25 -196 -28 -48 -91 -84 -147 -84 -52 0
-119 40 -145 86 -21 36 -23 52 -23 194 0 142 2 158 23 194 26 46 93 86 145 86
20 0 55 -9 79 -21z"/>
<path d="M3282 2588 c-17 -17 -18 -678 0 -696 18 -18 46 -14 58 7 6 12 10 117
10 273 l0 253 180 -270 c99 -148 187 -271 195 -273 43 -10 45 3 45 357 0 341
-2 361 -36 361 -7 0 -20 -7 -28 -16 -14 -13 -16 -52 -16 -272 l0 -257 -180
270 c-108 162 -187 271 -197 273 -10 1 -24 -3 -31 -10z"/>
<path d="M1252 1628 c-16 -16 -15 -43 2 -57 10 -8 313 -10 1131 -9 1052 3
1118 4 1129 21 8 12 8 22 0 35 -11 16 -77 17 -1131 20 -862 2 -1122 -1 -1131
-10z"/>
</g>
</svg>
