<?xml version="1.0" standalone="no"?>
<!DOCTYPE svg PUBLIC "-//W3C//DTD SVG 20010904//EN"
 "http://www.w3.org/TR/2001/REC-SVG-20010904/DTD/svg10.dtd">
<svg version="1.0" xmlns="http://www.w3.org/2000/svg"
 width="280.000000pt" height="280.000000pt" viewBox="0 0 280.000000 280.000000"
 preserveAspectRatio="xMidYMid meet">

<g transform="translate(0.000000,280.000000) scale(0.100000,-0.100000)"
 stroke="none">
<path d="M1010 2373 c-339 -55 -608 -249 -749 -538 -51 -105 -70 -162 -87
-265 -75 -457 159 -888 583 -1073 279 -122 662 -91 905 74 l37 25 -81 74 c-45
41 -104 106 -133 145 -52 69 -135 224 -135 251 0 20 -17 17 -69 -9 -38 -18
-63 -22 -141 -22 -82 0 -103 4 -152 27 -126 59 -207 176 -216 312 -10 162 69
296 218 365 47 22 69 26 150 26 78 0 103 -4 141 -22 52 -26 69 -29 69 -9 0 27
83 182 135 251 29 39 88 104 133 145 l81 74 -37 25 c-140 95 -343 152 -531
150 -53 -1 -107 -4 -121 -6z"/>
<path d="M2175 1757 c-105 -35 -196 -113 -238 -205 -32 -68 -32 -236 0 -305
33 -70 113 -149 186 -183 54 -25 74 -29 152 -29 77 0 98 4 146 27 105 50 177
133 204 234 49 188 -31 362 -204 441 -67 31 -183 40 -246 20z"/>
</g>
</svg>
