<?xml version="1.0" standalone="no"?>
<!DOCTYPE svg PUBLIC "-//W3C//DTD SVG 20010904//EN"
 "http://www.w3.org/TR/2001/REC-SVG-20010904/DTD/svg10.dtd">
<svg version="1.0" xmlns="http://www.w3.org/2000/svg"
 width="767.000000pt" height="622.000000pt" viewBox="0 0 767.000000 622.000000"
 preserveAspectRatio="xMidYMid meet">

<g transform="translate(0.000000,622.000000) scale(0.100000,-0.100000)"
 stroke="none">
<path d="M3490 5945 c-223 -129 -423 -245 -445 -258 -22 -13 -133 -77 -247
-143 l-208 -119 3 -764 2 -764 237 -136 c130 -75 233 -140 229 -144 -8 -8
-164 -99 -368 -214 l-103 -58 0 -267 c0 -148 -2 -268 -5 -268 -4 0 -254 143
-390 223 -48 28 -64 33 -80 25 -18 -10 -277 -159 -1005 -580 l-285 -165 -2
-764 -3 -764 73 -41 c39 -22 146 -83 237 -136 91 -52 343 -198 560 -323 217
-125 407 -234 421 -242 24 -14 28 -14 65 9 37 23 511 298 869 503 88 51 214
123 280 161 l120 70 5 266 5 266 224 -128 225 -129 40 24 c23 13 120 69 216
125 96 56 179 102 183 103 5 1 8 -113 8 -253 0 -141 3 -260 7 -266 4 -6 97
-63 207 -126 544 -315 794 -459 943 -545 l163 -94 372 215 c205 118 500 288
657 379 l285 165 3 760 2 760 -217 125 c-120 69 -317 182 -438 252 -121 70
-320 185 -441 255 l-222 128 -223 -129 -224 -128 -5 266 -5 265 -237 137
c-130 75 -237 139 -238 142 0 3 108 68 240 144 l240 139 -2 760 -3 760 -50 29
c-27 16 -297 172 -600 347 -302 175 -574 332 -603 349 -29 17 -56 31 -60 31
-4 -1 -189 -106 -412 -235z m290 -667 l0 -543 -203 -116 c-111 -64 -320 -184
-464 -268 -145 -83 -265 -151 -268 -151 -3 0 -4 244 -3 542 l3 541 245 142
c135 77 337 194 450 259 113 65 209 122 215 127 5 5 13 9 17 9 4 0 8 -244 8
-542z m535 377 c121 -70 318 -183 438 -252 l217 -125 0 -539 c0 -322 -4 -539
-9 -539 -5 0 -47 22 -93 48 -46 27 -213 124 -373 216 -159 93 -329 191 -377
219 l-88 51 0 544 0 544 33 -20 c17 -11 131 -77 252 -147z m105 -1435 c223
-128 409 -236 413 -240 4 -4 -72 -53 -170 -109 -158 -91 -180 -101 -201 -91
-14 6 -145 80 -292 166 l-267 154 -124 -71 c-68 -39 -197 -113 -286 -165 -89
-52 -166 -94 -170 -94 -15 0 -348 198 -347 206 2 8 122 79 612 361 l314 181
56 -32 c32 -18 239 -137 462 -266z m-359 -501 c88 -50 159 -94 159 -97 -1 -11
-311 -187 -323 -184 -19 5 -316 176 -317 182 0 4 309 188 319 189 2 1 75 -40
162 -90z m-705 -258 c17 -16 534 -311 545 -311 6 0 107 55 223 121 116 67 241
139 278 160 37 22 73 39 79 39 11 0 308 -167 342 -193 14 -10 2 -21 -91 -73
-59 -34 -163 -94 -232 -134 -621 -359 -591 -343 -624 -327 -60 29 -901 518
-903 525 -4 11 329 201 353 201 11 1 24 -3 30 -8z m-111 -645 c198 -114 385
-222 415 -241 30 -18 70 -40 88 -49 l32 -17 0 -539 c0 -297 -3 -540 -8 -540
-4 0 -77 40 -162 89 l-155 89 -5 352 -5 351 -300 173 -300 173 -3 198 -2 198
22 -15 c13 -8 185 -108 383 -222z m1713 -159 c-12 -7 -475 -276 -571 -330
l-37 -22 0 -349 1 -348 -78 -45 c-194 -111 -233 -133 -238 -133 -3 0 -5 243
-5 539 l0 539 103 60 c56 33 266 155 467 271 l365 210 3 -192 c2 -148 0 -194
-10 -200z m-2950 -498 l-3 -540 -230 -133 c-375 -216 -628 -362 -667 -386
l-38 -22 0 544 0 544 293 169 c160 93 368 213 462 267 93 54 173 98 178 98 4
0 6 -243 5 -541z m422 449 l160 -92 0 -348 0 -348 38 -23 c20 -13 157 -92 305
-177 l267 -153 0 -194 0 -194 -22 12 c-13 6 -90 51 -173 99 -82 48 -258 149
-390 225 -132 76 -266 153 -297 172 l-58 34 0 540 c0 296 2 539 5 539 3 0 77
-41 165 -92z m3120 -447 l0 -538 -127 -73 c-71 -41 -195 -113 -278 -161 -416
-241 -519 -300 -527 -302 -11 -3 -12 373 -1 384 4 4 141 84 303 177 l295 170
5 352 5 351 150 89 c83 48 156 89 163 89 9 1 12 -113 12 -538z m463 422 c111
-64 297 -171 412 -238 116 -67 234 -135 262 -151 l53 -29 0 -542 c0 -299 -2
-543 -5 -543 -3 0 -53 29 -112 64 -60 35 -171 99 -248 143 -77 44 -237 136
-355 205 l-215 125 -3 542 c-1 297 0 541 3 541 4 0 97 -53 208 -117z m-2935
-348 l122 -70 0 -203 c0 -112 -4 -202 -8 -200 -4 2 -85 47 -180 101 l-172 98
0 204 0 205 58 -33 c31 -17 112 -63 180 -102z m1892 -68 l0 -202 -179 -103
c-99 -56 -181 -102 -183 -102 -3 0 -3 15 -2 33 1 17 2 109 3 204 l1 171 173
100 c94 55 175 101 180 101 4 1 7 -90 7 -202z m-2607 -895 c122 -71 331 -191
464 -268 231 -132 242 -140 222 -154 -20 -14 -250 -148 -726 -422 l-191 -110
-466 269 c-256 147 -465 271 -466 274 0 4 60 40 133 82 72 41 281 161 462 266
182 105 334 191 338 191 5 0 108 -58 230 -128z m3509 16 c192 -111 424 -244
632 -364 l108 -62 -93 -55 c-124 -72 -718 -414 -791 -456 l-57 -32 -463 267
c-255 147 -465 269 -468 271 -6 7 -49 -19 470 283 245 142 450 259 457 259 6
1 99 -49 205 -111z"/>
</g>
</svg>
