<?xml version="1.0" standalone="no"?>
<!DOCTYPE svg PUBLIC "-//W3C//DTD SVG 20010904//EN"
 "http://www.w3.org/TR/2001/REC-SVG-20010904/DTD/svg10.dtd">
<svg version="1.0" xmlns="http://www.w3.org/2000/svg"
 width="1448.000000pt" height="1448.000000pt" viewBox="0 0 1448.000000 1448.000000"
 preserveAspectRatio="xMidYMid meet">

<g transform="translate(0.000000,1448.000000) scale(0.100000,-0.100000)"
fill="#000000" stroke="none">
<path d="M1275 14451 c-440 -79 -827 -347 -1056 -731 -25 -41 -52 -91 -61
-110 -65 -141 -98 -238 -130 -390 l-23 -105 0 -5875 0 -5875 23 -105 c65 -304
196 -558 395 -767 247 -258 538 -411 896 -469 150 -24 405 -15 554 20 257 60
468 165 671 334 128 107 212 214 473 601 135 201 301 447 368 546 67 99 206
306 310 460 104 154 243 361 310 460 67 99 215 320 330 490 115 171 250 371
300 445 50 74 199 295 330 490 132 195 394 585 584 865 189 281 355 535 367
565 30 70 31 141 3 217 -29 79 -123 173 -198 198 -71 23 -179 18 -241 -13 -25
-12 -191 -148 -370 -303 -179 -155 -656 -568 -1060 -918 -404 -349 -933 -807
-1175 -1016 -242 -209 -451 -388 -465 -398 -62 -43 -152 -2 -170 78 -13 57
-13 8079 0 8126 6 19 21 46 34 58 29 27 102 39 134 22 11 -6 130 -142 265
-303 134 -161 396 -475 582 -698 312 -373 1192 -1426 1806 -2160 140 -168 542
-649 894 -1070 714 -854 1241 -1484 1751 -2095 188 -225 543 -651 790 -945
246 -294 624 -746 840 -1005 216 -258 545 -652 731 -875 186 -223 567 -679
847 -1015 280 -335 538 -642 573 -682 203 -229 490 -393 818 -465 130 -29 707
-38 859 -13 355 57 647 210 893 468 199 209 330 463 395 767 l23 105 0 5875 0
5875 -23 105 c-65 304 -196 558 -395 767 -247 258 -538 411 -895 469 -141 22
-404 15 -546 -16 -304 -65 -559 -201 -774 -413 -118 -116 -145 -152 -457 -617
-154 -228 -369 -548 -478 -710 -109 -162 -264 -392 -343 -510 -80 -118 -280
-415 -445 -660 -165 -245 -384 -569 -485 -720 -102 -151 -272 -403 -377 -560
-106 -157 -304 -451 -441 -653 -136 -203 -257 -389 -268 -415 -64 -143 12
-327 167 -403 59 -29 70 -31 148 -28 75 4 89 7 139 39 31 19 240 195 464 391
225 196 747 650 1159 1009 413 359 898 781 1078 939 181 157 344 294 363 305
45 24 91 15 130 -25 l29 -30 3 -4082 c2 -3012 -1 -4089 -9 -4109 -24 -59 -116
-86 -171 -50 -15 9 -132 143 -260 297 -256 307 -760 911 -1303 1561 -379 453
-1183 1415 -1729 2069 -189 226 -567 678 -840 1005 -274 327 -663 793 -865
1035 -202 242 -592 708 -865 1035 -274 327 -663 793 -865 1035 -202 242 -520
622 -706 845 -186 223 -521 623 -744 890 -815 976 -909 1087 -994 1167 -192
181 -433 305 -710 365 -92 20 -135 22 -447 24 -297 3 -359 1 -445 -15z"/>
</g>
</svg>
