<?xml version="1.0" encoding="iso-8859-1"?>
<!-- Uploaded to: SVG Repo, www.svgrepo.com, Generator: SVG Repo Mixer Tools -->
<svg fill="#000000" height="800px" width="800px" version="1.1" id="Layer_1" xmlns="http://www.w3.org/2000/svg" xmlns:xlink="http://www.w3.org/1999/xlink" 
	 viewBox="0 0 512.002 512.002" xml:space="preserve">
<g>
	<g>
		<path d="M511.771,156.976c-2.43-25.476-25.078-45.467-51.708-45.797c-3.849-24.208-24.863-42.773-50.138-42.773h-28.281
			c-3.973,0-7.404-2.779-8.743-7.078c-6.637-21.34-26.123-35.678-48.489-35.678H187.59c-25.268,0-46.279,18.556-50.135,42.757
			h-26.828c-22.366,0-41.853,14.339-48.489,35.678c-1.337,4.299-4.768,7.078-8.743,7.078h-0.79
			c-26.919,0-49.925,20.123-52.375,45.812c-1.363,14.296,3.361,28.55,12.961,39.107c9.606,10.566,23.302,16.627,37.577,16.627h43.93
			c3.856,24.2,24.866,42.757,50.135,42.757h18.41c3.757,19.46,20.909,34.205,41.45,34.205h43.291v180.648h-51.843
			c-4.427,0-8.017,3.589-8.017,8.017c0,4.427,3.589,8.017,8.017,8.017H315.86c4.427,0,8.017-3.589,8.017-8.017
			c0-4.427-3.589-8.017-8.017-8.017h-51.843V323.877h9.086c23.281,0,42.222-18.941,42.222-42.222v-26.189h43.291
			c22.366,0,41.852-14.339,48.489-35.678c1.337-4.299,4.768-7.078,8.743-7.078h45.384c14.274,0,27.97-6.061,37.577-16.627
			C508.41,185.525,513.135,171.27,511.771,156.976z M187.591,41.683h136.822c15.305,0,28.639,9.808,33.179,24.407
			c3.414,10.976,13.08,18.35,24.053,18.35h28.281c16.396,0,30.166,11.421,33.796,26.723h-68.002
			c-22.366,0-41.852,14.339-48.489,35.678c-1.337,4.299-4.768,7.078-8.743,7.078h-34.03c0.188-0.2,0.384-0.39,0.569-0.593
			c9.6-10.558,14.324-24.813,12.961-39.108c-2.45-25.689-25.455-45.812-52.375-45.812h-91.817
			C157.425,53.104,171.195,41.683,187.591,41.683z M162.471,239.433h-17.637c-16.396,0-30.166-11.42-33.796-26.723h51.433V239.433z
			 M170.488,196.679H50.769c-9.767-0.002-19.138-4.15-25.713-11.381c-6.664-7.33-9.812-16.847-8.862-26.8
			c1.674-17.552,17.668-31.3,36.413-31.3h0.79c10.972,0,20.639-7.374,24.053-18.35c4.541-14.598,17.874-24.407,33.179-24.407
			h134.984c18.745,0,34.739,13.748,36.413,31.301c0.949,9.953-2.198,19.469-8.862,26.8c-6.575,7.232-15.946,11.38-25.713,11.38
			h-19.73c-10.972,0-20.639,7.374-24.053,18.35C199.127,186.87,185.793,196.679,170.488,196.679z M178.505,212.083
			c18.9-2.969,34.643-16.307,40.473-35.051c1.337-4.299,4.768-7.078,8.743-7.078h8.95c-7.808,7.955-13.008,18.308-14.102,29.778
			c-1.364,14.296,3.361,28.551,12.96,39.109c0.185,0.203,0.381,0.393,0.569,0.593h-57.591V212.083z M247.985,273.639h-43.291
			c-11.645,0-21.534-7.642-24.928-18.172h68.22V273.639z M299.293,281.656c0,14.44-11.748,26.189-26.189,26.189h-9.086v-52.377
			h9.086h26.189V281.656z M486.947,185.298c-6.575,7.232-15.946,11.38-25.713,11.38H415.85c-10.973,0-20.639,7.375-24.053,18.35
			c-4.541,14.598-17.875,24.407-33.179,24.407h-85.514c-9.767,0-19.138-4.147-25.713-11.38c-6.664-7.33-9.812-16.847-8.862-26.8
			c1.674-17.552,17.668-31.301,36.413-31.301h43.547c10.973,0,20.639-7.374,24.053-18.35c4.541-14.598,17.874-24.407,33.179-24.407
			h83.676c18.745,0,34.739,13.748,36.413,31.301C496.759,168.449,493.612,177.967,486.947,185.298z"/>
	</g>
</g>
</svg>